<svg preserveAspectRatio="xMidYMid meet" overflow="visible" style="display: block;" width="66.3774" height="65.5258" viewBox="0 0 66.3774 65.5258" fill="none" xmlns="http://www.w3.org/2000/svg">
<g id="Group 203">
<path id="Subtract" d="M34.3393 14.0077C35.2961 14.0072 37.1157 13.868 37.974 14.0985C38.1592 14.1483 38.3269 14.3026 38.4115 14.4726C38.4772 14.6043 38.5003 14.75 38.5082 14.8954C38.5653 15.9393 38.6153 23.7381 38.4076 24.2099C38.3001 24.4528 38.069 24.539 37.8422 24.6356C36.6912 24.7818 35.3948 24.6735 34.2299 24.6747C32.5356 24.6765 30.7945 24.7589 29.1049 24.6591C28.8183 24.6422 28.5129 24.6136 28.2416 24.5145C28.1244 24.4716 28.0887 24.4369 28.0395 24.3212C27.926 24.0542 27.886 23.7066 27.8666 23.4198C27.7996 22.4283 27.7525 14.887 27.9731 14.4442C28.0884 14.2127 28.301 14.114 28.5278 14.0253C30.4614 13.9733 32.4047 14.0089 34.3393 14.0077ZM29.7172 22.7987L36.6635 22.8017L36.6586 15.8651L29.7133 15.8642L29.7172 22.7987Z" fill="url(#paint0_linear_0_4)"/>
<path id="Subtract_2" d="M33.2325 0.000113641C33.5168 -0.0041643 33.7713 0.112742 33.9942 0.28234C36.2796 2.02215 38.5429 3.79922 40.8174 5.55285L55.8526 17.1818L63.0996 22.797C63.8343 23.3675 65.764 24.7553 66.3203 25.3712C66.4275 27.0604 66.3506 29.6581 66.3506 31.4112V42.7638L66.3487 57.0831C66.3487 59.5337 66.3678 62.004 66.3399 64.4552C66.3362 64.7518 66.3165 65.0725 66.1153 65.3097C65.975 65.4744 65.1612 65.5181 64.9395 65.5206C63.7893 65.5318 62.6281 65.5212 61.4766 65.5206L54.4561 65.5196H11.2998C8.06458 65.5196 4.82611 65.5236 1.59086 65.5236C1.30592 65.5235 0.443146 65.4988 0.262732 65.3009C0.0989305 65.1429 0.0507042 64.8891 0.0459349 64.6661C0.00412307 62.6994 0.0206053 60.7227 0.0205443 58.756L0.0224974 47.6232L0.0195677 33.5118C0.0190686 30.9647 -0.0379236 28.1615 0.0449583 25.63C0.464138 25.1235 3.25656 23.036 3.97074 22.4845L12.9385 15.5548L27.3184 4.43078L30.7266 1.79308C31.3575 1.30391 32.5658 0.301909 33.2325 0.000113641ZM50.5332 30.8273H40.9356L10.7647 30.8253L10.5137 30.8448C10.3482 31.0479 10.43 35.4902 10.4307 36.0724V54.3644L10.4317 60.34C10.4317 61.3113 10.4696 62.6822 10.4082 63.63C13.3086 63.6696 16.6944 63.7126 19.583 63.6407L19.5664 56.4444C19.5661 55.2174 19.5303 53.9389 19.6192 52.715C19.6445 52.3662 19.9096 52.0405 20.2686 52.0226C20.9551 51.9507 21.6566 51.977 22.3477 51.9777L26.252 51.9845L26.2471 44.9737C26.2468 43.7923 26.2263 42.6007 26.2725 41.4239C26.2951 40.8485 26.4353 40.3226 27.1172 40.3107C31.389 40.2358 35.6687 40.3018 39.9424 40.2872C40.3353 40.2859 41.0122 40.2584 41.2715 40.5841C41.4098 40.7645 41.4585 40.7699 41.4717 41.0392C41.5289 42.2023 41.5043 43.4405 41.5039 44.6027L41.4981 51.9806L43.9952 51.9845C44.4827 51.982 47.7549 51.8619 47.9453 52.2032C48.4002 53.0307 48.2383 55.6281 48.2373 56.6368L48.2354 63.6368C50.8153 63.6517 53.3956 63.6511 55.9756 63.6368C55.879 62.1334 55.9473 59.8471 55.9473 58.298L55.9502 48.2267L55.9483 36.8702C55.9483 35.0088 55.8783 32.663 55.9688 30.8566C54.308 30.7619 52.2272 30.8261 50.5332 30.8273ZM12.9239 17.9347L5.62211 23.5841C4.49859 24.4554 2.98883 25.7058 1.85355 26.4982C1.79737 28.0686 1.8345 29.8422 1.835 31.4288L1.83597 40.0333L1.84086 63.6407L8.55863 63.6505L8.5557 41.4855L8.55179 34.1105C8.55043 32.7558 8.52924 31.3757 8.58109 30.0226C8.59355 29.6975 8.65534 29.4127 8.88187 29.1612C9.01636 29.0128 9.7706 28.9607 9.97562 28.9591C12.5707 28.94 15.1888 28.953 17.7823 28.9542H33.2168L48.6241 28.9523L53.627 28.9532C54.5698 28.9535 55.5188 28.9381 56.461 28.9698C57.1269 28.9923 57.7316 29.0304 57.7793 29.8487C57.8518 31.0827 57.8259 32.3246 57.8252 33.5607L57.8213 40.0948C57.8188 47.8644 57.7205 55.89 57.8301 63.6388L62.043 63.6437C62.7881 63.643 63.8214 63.6103 64.5313 63.671L64.5342 26.2521C61.668 24.1621 58.5562 21.6467 55.7178 19.4503L39.4444 6.8673C38.7985 6.36742 33.5053 2.21212 33.3067 2.16808L12.9239 17.9347ZM30.0362 53.8419C29.9999 58.6719 30.5537 57.9034 25.4844 57.922C25.252 57.9226 24.7344 57.7877 24.5694 57.5939C24.2313 56.8685 24.3953 54.6416 24.3858 53.8478C23.4123 53.8472 22.4 53.8606 21.4297 53.8439C21.3991 57.0526 21.3854 60.4299 21.4258 63.6368L28.9463 63.6437C30.0888 63.643 31.8701 63.5895 32.9698 63.67C32.9818 62.3457 32.9863 61.0204 32.9834 59.6954C32.9828 57.793 32.9427 55.7371 32.9844 53.8478L30.0362 53.8419ZM34.8418 53.8419C34.7546 57.0178 34.8203 60.4402 34.8203 63.6359L42.4395 63.6456C43.6767 63.6456 45.1522 63.6082 46.3741 63.6652L46.378 59.6329L46.3731 53.8487L43.4327 53.8439C43.4197 54.6171 43.563 57.1374 43.1944 57.6261C42.4334 58.1368 40.8124 57.8788 39.9034 57.9376C39.3932 57.971 38.3882 57.958 37.9912 57.6241C37.6219 56.9565 37.7904 54.7447 37.7705 53.8429C36.807 53.8429 35.8019 53.858 34.8418 53.8419ZM39.6416 53.8429C39.6352 54.5858 39.6388 55.3285 39.6524 56.0714L41.544 56.0753L41.5567 53.8468L39.6416 53.8429ZM26.2461 53.8507L26.2481 56.0704H28.1651V53.8468L26.2461 53.8507ZM36.7188 42.1339C36.7109 42.9257 36.7947 45.2135 36.5762 45.8048C36.3278 46.4716 31.88 46.3486 31.3028 45.9366C30.9125 45.3605 31.0767 42.9692 31.0684 42.1368H28.1123L28.1114 51.9796L39.6495 51.9855L39.6446 47.9259C39.6449 46.1534 39.7104 43.874 39.6358 42.1417L36.7188 42.1339ZM34.8448 42.1339C34.2136 42.1348 33.5609 42.1446 32.9317 42.1339L32.9209 44.3497L34.8457 44.3556C34.8426 43.6281 34.8265 42.8577 34.8448 42.1339Z" fill="url(#paint1_linear_0_4)"/>
</g>
<defs>
<linearGradient id="paint0_linear_0_4" x1="27.811" y1="19.339" x2="38.5582" y2="19.339" gradientUnits="userSpaceOnUse">
<stop stop-color="#A30C0C"/>
<stop offset="1" stop-color="#100D3F"/>
</linearGradient>
<linearGradient id="paint1_linear_0_4" x1="3.64406e-05" y1="32.763" x2="66.3774" y2="32.763" gradientUnits="userSpaceOnUse">
<stop stop-color="#A30C0C"/>
<stop offset="1" stop-color="#100D3F"/>
</linearGradient>
</defs>
</svg>
