<svg preserveAspectRatio="xMidYMid meet" overflow="visible" style="display: block;" width="65.0499" height="63.8661" viewBox="0 0 65.0499 63.8661" fill="none" xmlns="http://www.w3.org/2000/svg">
<g id="Group 233">
<path id="Subtract" d="M13.848 40.2274C14.1774 40.1748 15.2047 40.1792 15.556 40.206C20.0561 40.549 23.2618 42.2745 26.2005 45.5644C26.9685 45.172 28.3602 44.7349 29.18 44.5126C31.7127 43.826 34.5096 43.9579 36.9827 44.829C37.6735 45.0726 38.2059 45.1986 38.8616 45.578L39.3314 45.0829C42.238 42.0389 45.7393 40.2802 50.0062 40.1913C53.9158 40.109 57.6959 41.5945 60.5052 44.3163C63.1526 46.8701 64.8352 50.3413 65.0032 54.0605C65.2481 59.4687 64.6893 59.9377 59.4241 59.9316L54.2435 59.9247H47.3441C47.3516 61.1221 47.3158 62.055 46.4339 62.9745C45.6018 63.842 45.0159 63.8287 43.8743 63.8349L27.2962 63.8378L22.7396 63.8358C21.3484 63.8352 19.6999 64.1095 18.6946 63.0185C17.7708 62.0165 17.7705 61.2148 17.7855 59.9452C16.5985 59.8821 15.0991 59.923 13.8948 59.9237L6.78352 59.9306C4.30009 59.9326 0.361986 60.6188 0.0667191 57.1435C-0.676811 48.3924 4.85014 41.0175 13.848 40.2274ZM45.3411 57.8437C44.8637 50.6961 38.646 45.612 31.7054 46.0302C31.6046 46.0363 31.5028 46.0457 31.4027 46.0585C30.7817 46.129 30.0326 46.1881 29.4359 46.3378C23.7531 47.7615 19.5121 53.1058 19.7083 59.0077C19.7282 59.6077 19.5528 61.3695 19.9925 61.6659C20.7683 62.1873 23.3878 61.9809 24.2933 61.9774L24.2904 57.3495C24.2898 56.5795 24.2514 55.7309 24.3275 54.9911C24.412 54.1727 25.4726 53.8534 25.9837 54.5273C26.2665 54.9005 26.2144 55.3811 26.2181 55.8134C26.2356 57.8665 26.1845 59.9237 26.2132 61.9755L33.7991 61.9814L38.8665 61.9794L38.8646 57.5595C38.8611 56.7451 38.774 55.8243 38.9056 55.0263C38.9419 54.8061 39.0182 54.6297 39.1732 54.4657C39.346 54.2818 39.6076 54.1426 39.8655 54.1523C40.1515 54.1641 40.4467 54.3509 40.6243 54.5683C40.9323 54.945 40.7601 61.0535 40.7669 61.9726C41.7023 61.9829 44.4838 62.188 45.1224 61.6357C45.5199 61.29 45.3843 58.4838 45.3411 57.8437ZM58.9837 45.4442C56.4221 43.1075 53.0347 41.888 49.5716 42.0546C49.4763 42.0602 49.381 42.0682 49.2864 42.079C45.7371 42.4677 43.0601 43.9112 40.6351 46.497C41.3732 47.1001 42.0438 47.5677 42.7366 48.2362C45.2722 50.6907 46.8519 53.967 47.1956 57.4794C47.2162 57.6887 47.2308 57.8986 47.2376 58.1093L56.6195 58.1103L56.6214 52.2441C56.6104 51.7081 56.5061 50.9838 56.888 50.5976C57.0732 50.409 57.3271 50.3039 57.5911 50.3056C57.8408 50.3057 58.0962 50.3959 58.265 50.5858C58.634 50.9997 58.453 57.0799 58.4749 58.1093C62.6865 58.1409 63.314 59.0188 63.1185 54.372C62.9921 50.9622 61.5026 47.7456 58.9837 45.4442ZM15.14 42.0399C14.8864 42.0264 13.9985 42.0425 13.7689 42.078C6.0296 42.944 1.2912 49.2569 1.97688 56.9042C2.09606 58.2326 2.99918 58.1209 4.04523 58.123C4.90706 58.1243 5.77465 58.1141 6.63703 58.1093L6.63801 53.4306C6.6365 52.6924 6.57151 51.67 6.67609 50.9579C6.82831 49.9211 7.91493 50.2923 8.44172 50.8192C8.53049 51.9489 8.48169 53.4784 8.48176 54.6454C8.48258 55.7476 8.45381 57.0208 8.4925 58.1093L17.8363 58.1103C18.3006 53.752 19.7387 50.4358 23.1654 47.5204C23.5538 47.1899 24.0931 46.8271 24.4564 46.4999C21.838 43.765 19.0285 42.2491 15.14 42.0399Z" fill="url(#paint0_linear_0_4)"/>
<path id="Subtract_2" d="M49.6815 21.488C53.4189 20.9911 57.3909 24.2739 57.5555 28.0622C57.6797 30.9228 57.8978 33.4709 55.953 35.8298C54.6673 37.3865 52.8072 38.3587 50.7957 38.5251C49.0389 38.6415 47.2983 38.1214 45.8934 37.0602C44.4315 35.9742 43.3009 34.1802 43.0086 32.362C42.9078 31.733 42.9669 30.8913 42.9422 30.2487C42.8531 27.9724 43.0223 26.1796 44.4793 24.3063C45.8356 22.5631 47.5219 21.7654 49.6815 21.488ZM55.6688 27.902C55.1076 24.972 52.6523 23.1285 49.6873 23.3317C44.9848 24.1855 44.3446 28.1572 44.9559 32.2546C45.3766 35.0773 48.2391 36.9867 51.0682 36.5515C54.5722 35.9029 55.9677 33.2572 55.7928 29.8601C55.7572 29.1623 55.8073 28.6256 55.6688 27.902Z" fill="url(#paint1_linear_0_4)"/>
<path id="Subtract_3" d="M31.6155 25.3954C35.3214 25.0112 38.8047 27.2974 39.7034 31.0204C39.9153 31.9 39.8469 33.0429 39.8743 33.956C39.9038 34.9595 39.8539 36.0863 39.6282 37.0673C39.1507 38.8645 37.7852 40.5369 36.1936 41.4687C35.332 41.9727 34.3905 42.1936 33.4466 42.3808C31.7014 42.5439 29.83 42.1746 28.4339 41.1679C25.9042 39.3437 25.1376 37.1877 25.2395 34.1845C25.3186 31.8559 25.0917 30.4258 26.6214 28.3817C27.9002 26.6731 29.5744 25.7408 31.6155 25.3954ZM33.6692 27.3739C33.0417 27.2718 32.5139 27.2617 31.8802 27.3134C28.8736 27.8072 27.1263 29.8835 27.093 32.9491C27.0759 34.5314 26.9484 36.1114 27.6927 37.579C28.7549 39.6733 30.9736 40.7989 33.2971 40.5321C37.8619 39.6706 38.4457 35.6391 37.9016 31.7255C37.6114 29.6384 35.7362 27.7108 33.6692 27.3739Z" fill="url(#paint2_linear_0_4)"/>
<path id="Subtract_4" d="M14.2204 21.4878C17.8419 20.9921 21.6748 24.1204 22.0935 27.7114C22.1688 28.3985 22.0708 29.1511 22.1081 29.8325C22.2362 32.1721 22.0379 34.0069 20.448 35.8794C19.1596 37.4051 17.3174 38.3555 15.3278 38.521C11.7194 38.9078 7.99303 35.9085 7.59444 32.3394C7.49044 31.4073 7.52462 30.6343 7.4792 29.7251C7.2636 25.4092 9.72649 22.0449 14.2204 21.4878ZM17.8649 24.2661C16.786 23.5419 15.5348 23.2045 14.2204 23.3325C9.87266 24.0842 9.04744 27.5165 9.34249 31.3091C9.60146 34.6379 12.1808 36.9836 15.5085 36.5718C18.6123 35.9804 20.1733 34.0886 20.2751 30.8755C20.3573 28.2798 20.2825 25.8889 17.8649 24.2661Z" fill="url(#paint3_linear_0_4)"/>
<path id="Subtract_5" d="M31.3936 0.0660339C33.3939 -0.145521 34.7051 0.135632 36.4366 1.13635C37.8333 1.94375 39.3395 3.86349 39.6592 5.47521C39.9741 7.06246 39.9694 10.0446 39.6387 11.6793C39.5337 12.1988 39.0781 13.1508 38.7666 13.6207C37.4062 15.6759 35.9983 16.4399 33.6953 16.9801C29.9032 17.5248 26.3428 15.2113 25.3936 11.4547C25.1527 10.549 25.3235 9.51539 25.2432 8.62267C24.8639 4.40284 27.0641 0.990014 31.3936 0.0660339ZM37.9405 6.59142C37.5595 3.77423 34.9448 1.60292 32.1006 1.92834C30.3578 2.18487 29.2282 2.68184 28.1211 4.1549C27.2799 5.27446 27.1371 6.43022 27.0889 7.77014C27.0011 10.2137 27.1146 12.5285 29.2881 14.1276C30.4379 14.9734 31.6217 15.2778 33.0664 15.1969C37.6498 14.5946 38.4625 10.4545 37.9405 6.59142Z" fill="url(#paint4_linear_0_4)"/>
<path id="Vector" d="M31.5693 18.7466C34.2894 18.3834 37.9322 19.4924 40.2228 20.9234C40.959 21.3836 42.7344 22.2909 41.7129 23.3795C41.0022 24.1365 39.6301 22.6714 38.9852 22.3448C37.17 21.3027 35.5277 20.8535 33.4387 20.6807C31.2002 20.3698 27.8699 21.2313 25.9614 22.423C25.3821 22.7847 24.6849 23.4239 24.0246 23.5881C23.8263 23.6281 23.4759 23.5147 23.3433 23.3647C22.3953 22.2921 24.1004 21.3641 24.7592 20.971C26.8265 19.7122 29.1578 18.9508 31.5693 18.7466Z" fill="url(#paint5_linear_0_4)"/>
</g>
<defs>
<linearGradient id="paint0_linear_0_4" x1="0.000312831" y1="52.026" x2="65.0493" y2="52.026" gradientUnits="userSpaceOnUse">
<stop stop-color="#A30C0C"/>
<stop offset="1" stop-color="#100D3F"/>
</linearGradient>
<linearGradient id="paint1_linear_0_4" x1="42.9227" y1="29.9897" x2="57.6323" y2="29.9897" gradientUnits="userSpaceOnUse">
<stop stop-color="#A30C0C"/>
<stop offset="1" stop-color="#100D3F"/>
</linearGradient>
<linearGradient id="paint2_linear_0_4" x1="25.2307" y1="33.8857" x2="39.8819" y2="33.8857" gradientUnits="userSpaceOnUse">
<stop stop-color="#A30C0C"/>
<stop offset="1" stop-color="#100D3F"/>
</linearGradient>
<linearGradient id="paint3_linear_0_4" x1="7.46651" y1="29.9955" x2="22.1396" y2="29.9955" gradientUnits="userSpaceOnUse">
<stop stop-color="#A30C0C"/>
<stop offset="1" stop-color="#100D3F"/>
</linearGradient>
<linearGradient id="paint4_linear_0_4" x1="25.2012" y1="8.52974" x2="39.8907" y2="8.52974" gradientUnits="userSpaceOnUse">
<stop stop-color="#A30C0C"/>
<stop offset="1" stop-color="#100D3F"/>
</linearGradient>
<linearGradient id="paint5_linear_0_4" x1="23.0628" y1="21.1366" x2="42.022" y2="21.1366" gradientUnits="userSpaceOnUse">
<stop stop-color="#A30C0C"/>
<stop offset="1" stop-color="#100D3F"/>
</linearGradient>
</defs>
</svg>
